<?xml version="1.0" encoding="UTF-8"?>
<!DOCTYPE svg PUBLIC "-//W3C//DTD SVG 1.1//EN" "http://www.w3.org/Graphics/SVG/1.1/DTD/svg11.dtd">
<svg xmlns="http://www.w3.org/2000/svg" version="1.1" width="263px" height="388px" style="shape-rendering:geometricPrecision; text-rendering:geometricPrecision; image-rendering:optimizeQuality; fill-rule:evenodd; clip-rule:evenodd" xmlns:xlink="http://www.w3.org/1999/xlink">
<g><path style="opacity:1" fill="#f4ddb2" d="M 74.5,-0.5 C 75.5,-0.5 76.5,-0.5 77.5,-0.5C 107.762,24.9817 138.096,50.4817 168.5,76C 122.614,121.98 103.114,177.48 110,242.5C 118.974,305.846 150.474,354.179 204.5,387.5C 201.5,387.5 198.5,387.5 195.5,387.5C 125.186,377.001 70.6858,342.001 32,282.5C 13.2853,251.287 2.45197,217.62 -0.5,181.5C -0.5,171.5 -0.5,161.5 -0.5,151.5C 5.05174,91.1449 30.0517,40.4783 74.5,-0.5 Z"/></g>
<g><path style="opacity:1" fill="#f4ddb2" d="M 262.5,175.5 C 262.5,180.833 262.5,186.167 262.5,191.5C 254.191,224.617 232.858,240.451 198.5,239C 177.426,234.92 162.593,223.087 154,203.5C 145.539,175.55 153.039,153.05 176.5,136C 202.655,122.121 226.488,125.288 248,145.5C 255.287,154.405 260.12,164.405 262.5,175.5 Z"/></g>
</svg>
